<svg width="14" height="15" viewBox="0 0 14 15" fill="none" xmlns="http://www.w3.org/2000/svg">
<path d="M7.33463 9.50132V10.8947C6.73125 10.6813 6.08549 10.6159 5.45157 10.7038C4.81766 10.7918 4.2141 11.0306 3.69159 11.4001C3.16908 11.7697 2.74286 12.2592 2.44874 12.8276C2.15462 13.396 2.00118 14.0267 2.0013 14.6667L0.667969 14.666C0.667762 13.8519 0.853916 13.0486 1.21217 12.3176C1.57042 11.5866 2.09126 10.9473 2.73478 10.4487C3.3783 9.95008 4.12742 9.60541 4.92474 9.44109C5.72206 9.27676 6.54641 9.29714 7.33463 9.50066V9.50132ZM6.0013 8.66666C3.7913 8.66666 2.0013 6.87666 2.0013 4.66666C2.0013 2.45666 3.7913 0.666656 6.0013 0.666656C8.2113 0.666656 10.0013 2.45666 10.0013 4.66666C10.0013 6.87666 8.2113 8.66666 6.0013 8.66666ZM6.0013 7.33332C7.47464 7.33332 8.66797 6.13999 8.66797 4.66666C8.66797 3.19332 7.47464 1.99999 6.0013 1.99999C4.52797 1.99999 3.33464 3.19332 3.33464 4.66666C3.33464 6.13999 4.52797 7.33332 6.0013 7.33332ZM10.0013 11.3333V9.33332H11.3346V11.3333H13.3346V12.6667H11.3346V14.6667H10.0013V12.6667H8.0013V11.3333H10.0013Z" fill="#3F6AD8"/>
</svg>
