<svg width="18" height="18" viewBox="0 0 18 18" fill="none" xmlns="http://www.w3.org/2000/svg">
<path d="M15.667 8.99999C15.6668 7.51406 15.1702 6.07077 14.2561 4.89932C13.3419 3.72786 12.0626 2.89539 10.6213 2.5341C9.17992 2.17281 7.65919 2.30341 6.30056 2.90516C4.94193 3.50691 3.82327 4.54532 3.12223 5.85548C2.42119 7.16565 2.17796 8.67247 2.43115 10.1367C2.68435 11.6009 3.41946 12.9385 4.51975 13.9372C5.62004 14.9359 7.02244 15.5383 8.50425 15.6489C9.98606 15.7595 11.4623 15.3718 12.6987 14.5475L13.6237 15.9342C12.2555 16.8489 10.6461 17.336 9.00033 17.3333C4.39783 17.3333 0.666992 13.6025 0.666992 8.99999C0.666992 4.39749 4.39783 0.666656 9.00033 0.666656C13.6028 0.666656 17.3337 4.39749 17.3337 8.99999V10.25C17.3337 10.8739 17.1337 11.4815 16.763 11.9834C16.3923 12.4853 15.8704 12.855 15.2739 13.0383C14.6775 13.2217 14.038 13.2089 13.4494 13.0019C12.8608 12.7949 12.3541 12.4046 12.0037 11.8883C11.4475 12.4667 10.7361 12.8721 9.95509 13.0559C9.17405 13.2398 8.35655 13.1942 7.60079 12.9246C6.84504 12.6551 6.18319 12.1731 5.69475 11.5365C5.20631 10.8999 4.91206 10.1358 4.84736 9.33607C4.78266 8.53631 4.95025 7.73487 5.33001 7.02805C5.70977 6.32123 6.28553 5.73909 6.98813 5.35157C7.69073 4.96406 8.49028 4.78765 9.29071 4.84354C10.0911 4.89944 10.8584 5.18525 11.5003 5.66666H13.167V10.25C13.167 10.5815 13.2987 10.8995 13.5331 11.1339C13.7675 11.3683 14.0855 11.5 14.417 11.5C14.7485 11.5 15.0665 11.3683 15.3009 11.1339C15.5353 10.8995 15.667 10.5815 15.667 10.25V8.99999ZM9.00033 6.49999C8.33728 6.49999 7.7014 6.76338 7.23256 7.23222C6.76372 7.70106 6.50033 8.33695 6.50033 8.99999C6.50033 9.66303 6.76372 10.2989 7.23256 10.7678C7.7014 11.2366 8.33728 11.5 9.00033 11.5C9.66337 11.5 10.2993 11.2366 10.7681 10.7678C11.2369 10.2989 11.5003 9.66303 11.5003 8.99999C11.5003 8.33695 11.2369 7.70106 10.7681 7.23222C10.2993 6.76338 9.66337 6.49999 9.00033 6.49999Z" fill="#718096"/>
</svg>
