<svg width="12" height="12" viewBox="0 0 12 12" fill="none" xmlns="http://www.w3.org/2000/svg">
<path fill-rule="evenodd" clip-rule="evenodd" d="M6.00042 0.285706C6.39491 0.285706 6.7147 0.605502 6.7147 0.999991V5.28571H11.0004C11.3949 5.28571 11.7147 5.6055 11.7147 5.99999C11.7147 6.39448 11.3949 6.71428 11.0004 6.71428H6.7147V11C6.7147 11.3945 6.39491 11.7143 6.00042 11.7143C5.60593 11.7143 5.28613 11.3945 5.28613 11V6.71428H1.00042C0.605929 6.71428 0.286133 6.39448 0.286133 5.99999C0.286133 5.6055 0.605929 5.28571 1.00042 5.28571H5.28613V0.999991C5.28613 0.605502 5.60593 0.285706 6.00042 0.285706Z" fill="white"/>
</svg>
